HIERARCHY
ROOT Hips
{
	OFFSET 0.000000 0.000000 0.000000 
	CHANNELS 6 Xposition Yposition Zposition Zrotation Yrotation Xrotation
	JOINT LeftUpLeg
	{
		OFFSET 1.363060 -1.794630 0.839290 
		CHANNELS 3 Zrotation Yrotation Xrotation
		JOINT LeftLeg
		{
			OFFSET 2.448110 -6.726130 0.000000 
			CHANNELS 3 Zrotation Yrotation Xrotation
			JOINT LeftFoot
			{
				OFFSET 2.562200 -7.039590 0.000000 
				CHANNELS 3 Zrotation Yrotation Xrotation
				JOINT LeftToeBase
				{
					OFFSET 0.157640 -0.433110 2.322550 
					CHANNELS 3 Zrotation Yrotation Xrotation
					End Site
					{
						OFFSET 0.000000 0.000000 0.000000 
					}
				}
			}
		}
	}
	JOINT RightUpLeg
	{
		OFFSET -1.305520 -1.794630 0.839290 
		CHANNELS 3 Zrotation Yrotation Xrotation
		JOINT RightLeg
		{
			OFFSET -2.542530 -6.985550 0.000000 
			CHANNELS 3 Zrotation Yrotation Xrotation
			JOINT RightFoot
			{
				OFFSET -2.568260 -7.056230 0.000000 
				CHANNELS 3 Zrotation Yrotation Xrotation
				JOINT RightToeBase
				{
					OFFSET -0.164730 -0.452590 2.363150 
					CHANNELS 3 Zrotation Yrotation Xrotation
					End Site
					{
						OFFSET 0.000000 0.000000 0.000000 
					}
				}
			}
		}
	}
	JOINT Spine
	{
		OFFSET 0.028270 2.035590 -0.193380 
		CHANNELS 3 Zrotation Yrotation Xrotation
		JOINT Spine1
		{
			OFFSET 0.056720 2.048850 -0.042750 
			CHANNELS 3 Zrotation Yrotation Xrotation
			JOINT Neck1
			{
				OFFSET -0.054170 1.746240 0.172020 
				CHANNELS 3 Zrotation Yrotation Xrotation
				JOINT Head
				{
					OFFSET 0.104070 1.761360 -0.123970 
					CHANNELS 3 Zrotation Yrotation Xrotation
					End Site
					{
						OFFSET 0.000000 0.000000 0.000000 
					}
				}
			}
			JOINT LeftArm
			{
				OFFSET 3.362410 1.200890 -0.311210 
				CHANNELS 3 Zrotation Yrotation Xrotation
				JOINT LeftForeArm
				{
					OFFSET 4.983000 -0.000000 -0.000000 
					CHANNELS 3 Zrotation Yrotation Xrotation
					JOINT LeftHand
					{
						OFFSET 3.483560 -0.000000 -0.000000 
						CHANNELS 3 Zrotation Yrotation Xrotation
						JOINT LeftHandIndex1
						{
							OFFSET 0.715260 -0.000000 -0.000000 
							CHANNELS 3 Zrotation Yrotation Xrotation
							End Site
							{
								OFFSET 0.000000 0.000000 0.000000 
							}
						}
					}
				}
			}
			JOINT RightArm
			{
				OFFSET -3.136600 1.374050 -0.404650 
				CHANNELS 3 Zrotation Yrotation Xrotation
				JOINT RightForeArm
				{
					OFFSET -5.241900 -0.000000 -0.000000 
					CHANNELS 3 Zrotation Yrotation Xrotation
					JOINT RightHand
					{
						OFFSET -3.444170 -0.000000 -0.000000 
						CHANNELS 3 Zrotation Yrotation Xrotation
						JOINT RightHandIndex1
						{
							OFFSET -0.622530 -0.000000 -0.000000 
							CHANNELS 3 Zrotation Yrotation Xrotation
							End Site
							{
								OFFSET 0.000000 0.000000 0.000000 
							}
						}
					}
				}
			}
		}
	}
}
MOTION
Frames: 15
Frame Time: 0.041667
25.527691 17.770067 -30.515351 -1.893754 -28.931882 12.895962 -12.179937 8.160713 -36.528377 2.884873 12.076200 35.014604 -2.333862 9.261377 -0.610585 0.070400 -1.712200 -4.711000 14.504408 5.770682 -29.174823 -3.783728 -13.139260 39.996910 1.391338 -8.010243 -12.455452 -0.018900 0.887700 -2.439900 1.332294 -3.116566 -2.791178 -8.143053 -1.046480 6.083854 9.471567 -9.822956 0.769778 5.625300 -4.328300 1.650700 -75.081002 -12.106171 57.886941 54.122683 -56.382685 -30.796162 0.382569 -0.927287 -81.417057 -7.125000 0.000000 0.000000 81.709809 -8.726993 58.823557 -45.957253 52.527473 -21.634925 0.347759 -0.142333 2.831466 7.125000 0.000000 0.000000 
25.530811 17.770379 -30.511088 -1.853117 -28.999761 12.827275 -12.199474 8.164676 -36.520538 2.881801 12.081116 35.009866 -2.344923 9.292087 -0.641761 0.070400 -1.711200 -4.708300 14.485901 5.741840 -29.153484 -3.789417 -13.127213 40.002411 1.374261 -7.952554 -12.430754 -0.018000 0.866600 -2.381800 1.540302 -3.734492 -2.990464 -7.156288 -1.449602 5.295137 9.511501 -9.004855 0.991518 5.955300 -3.967600 1.489600 -76.078359 -10.600954 56.677294 54.158102 -56.447163 -30.860702 0.369079 -0.910026 -81.088557 -7.125000 0.000000 0.000000 80.109650 -9.066365 60.630598 -46.118243 52.521962 -21.739583 0.340380 -0.092964 2.664428 7.125000 0.000000 0.000000 
25.532370 17.769963 -30.507864 -1.895056 -29.055866 12.858656 -12.193456 8.211112 -36.513630 2.888533 12.084044 35.031283 -2.344755 9.290962 -0.693351 0.068500 -1.689000 -4.646900 14.491039 5.790716 -29.132304 -3.787493 -13.133699 40.003707 1.364525 -7.924966 -12.434973 -0.017900 0.863000 -2.371800 1.448511 -3.592731 -2.904886 -7.645521 -1.328409 5.698358 9.566012 -9.165005 1.102539 5.890700 -4.034100 1.607600 -75.551924 -11.082885 56.979473 54.154930 -56.427581 -30.875732 0.373813 -0.922077 -81.283762 -7.125000 0.000000 0.000000 80.675041 -8.855019 60.201048 -46.029388 52.518213 -21.660719 0.339109 -0.111857 2.745912 7.125000 0.000000 0.000000 
25.535386 17.769547 -30.504225 -1.923268 -29.038454 12.857867 -12.171128 8.169585 -36.486185 2.893770 12.088186 35.049367 -2.356174 9.320517 -0.740612 0.069200 -1.697100 -4.669300 14.506384 5.759188 -29.128823 -3.787844 -13.135248 40.006458 1.361197 -7.912763 -12.424776 -0.017900 0.864300 -2.375500 1.428598 -3.440061 -2.902567 -7.692561 -1.254011 5.644701 9.542449 -9.343747 1.094514 5.830100 -4.122200 1.632800 -75.485236 -11.227671 57.345876 54.201378 -56.437438 -30.881560 0.373353 -0.924253 -81.303907 -7.125000 0.000000 0.000000 80.880979 -8.948514 59.828009 -45.993848 52.504953 -21.643235 0.336731 -0.115509 2.754902 7.125000 0.000000 0.000000 
25.538505 17.768299 -30.501521 -1.958239 -29.034506 12.864723 -12.148925 8.157920 -36.471679 2.901684 12.096664 35.078676 -2.357843 9.324888 -0.766102 0.068900 -1.693500 -4.659300 14.531726 5.721707 -29.131062 -3.789065 -13.138917 40.012168 1.366326 -7.919634 -12.387095 -0.020000 0.913700 -2.511300 1.418137 -3.496587 -2.876712 -7.807060 -1.267685 5.765426 9.592448 -9.307271 0.994547 5.858300 -4.101600 1.570900 -75.340563 -11.328267 57.207390 54.183893 -56.425285 -30.891221 0.372823 -0.928010 -81.343247 -7.125000 0.000000 0.000000 80.913106 -8.846269 59.882464 -46.024983 52.526554 -21.657520 0.335872 -0.115215 2.742309 7.125000 0.000000 0.000000 
25.541313 17.767676 -30.498402 -1.981618 -29.043247 12.864633 -12.137115 8.149341 -36.460155 2.909159 12.104908 35.107852 -2.360683 9.332248 -0.805322 0.068600 -1.690400 -4.650800 14.543346 5.704964 -29.124618 -3.790511 -13.141102 40.018288 1.363628 -7.908103 -12.370738 -0.020600 0.926600 -2.546900 1.414323 -3.511902 -2.871019 -7.843324 -1.271809 5.782391 9.628837 -9.287065 0.951516 5.881400 -4.092400 1.535600 -75.287126 -11.336002 57.187590 54.197775 -56.428439 -30.908097 0.371722 -0.929876 -81.362014 -7.125000 0.000000 0.000000 80.920124 -8.832443 59.898182 -46.033660 52.532356 -21.660051 0.334135 -0.113987 2.728072 7.125000 0.000000 0.000000 
25.544017 17.766948 -30.495490 -2.005657 -29.050914 12.865387 -12.126074 8.142328 -36.450503 2.917491 12.114112 35.140818 -2.362087 9.335774 -0.843670 0.068400 -1.687000 -4.641300 14.554707 5.691946 -29.118608 -3.792946 -13.144633 40.028126 1.361698 -7.899720 -12.358320 -0.021200 0.940500 -2.585200 1.404150 -3.501754 -2.858514 -7.905246 -1.261051 5.820975 9.667434 -9.297363 0.872233 5.895600 -4.096400 1.492300 -75.209749 -11.399668 57.214428 54.204851 -56.427563 -30.916938 0.370937 -0.932016 -81.390747 -7.125000 0.000000 0.000000 80.980821 -8.813486 59.841548 -46.041102 52.540118 -21.663058 0.332623 -0.114120 2.715661 7.125000 0.000000 0.000000 
25.546720 17.766012 -30.492786 -2.025819 -29.058687 12.862863 -12.117653 8.136140 -36.442584 2.925022 12.123025 35.171239 -2.363131 9.338363 -0.877778 0.068100 -1.684000 -4.633300 14.564010 5.680126 -29.112868 -3.796120 -13.147992 40.039999 1.360280 -7.893814 -12.349285 -0.021800 0.953600 -2.621100 1.402493 -3.502522 -2.853964 -7.918695 -1.261331 5.820778 9.704115 -9.290569 0.772392 5.917700 -4.092900 1.433800 -75.182450 -11.415324 57.215757 54.221659 -56.431689 -30.931385 0.369525 -0.932983 -81.406590 -7.125000 0.000000 0.000000 80.987212 -8.818592 59.823590 -46.058279 52.548763 -21.674447 0.331000 -0.112351 2.694965 7.125000 0.000000 0.000000 
25.549320 17.765076 -30.490187 -2.042824 -29.071798 12.859311 -12.112890 8.135784 -36.437424 2.932633 12.132430 35.203127 -2.361202 9.332997 -0.911742 0.067300 -1.673200 -4.603300 14.570442 5.674951 -29.106755 -3.800058 -13.151906 40.054532 1.359364 -7.889886 -12.343522 -0.022400 0.966500 -2.656600 1.403018 -3.510223 -2.850631 -7.919984 -1.266013 5.817360 9.741193 -9.271569 0.663694 5.943200 -4.083300 1.370200 -75.166761 -11.418951 57.196257 54.240849 -56.437085 -30.948484 0.367969 -0.933686 -81.419084 -7.125000 0.000000 0.000000 80.974520 -8.823849 59.830186 -46.076831 52.557392 -21.686964 0.329553 -0.110060 2.673042 7.125000 0.000000 0.000000 
25.551816 17.764036 -30.487795 -2.054588 -29.089464 12.851895 -12.113358 8.140418 -36.435487 2.940318 12.142270 35.235798 -2.358464 9.325865 -0.945608 0.066400 -1.663100 -4.575400 14.572855 5.676480 -29.099007 -3.805052 -13.155957 40.072097 1.359303 -7.889829 -12.343456 -0.023100 0.980300 -2.694700 1.408394 -3.516306 -2.852948 -7.886185 -1.274033 5.786643 9.769733 -9.248510 0.556115 5.966900 -4.071900 1.307600 -75.182045 -11.397090 57.180449 54.268755 -56.446319 -30.969100 0.365980 -0.933592 -81.430799 -7.125000 0.000000 0.000000 80.929883 -8.850835 59.852079 -46.099462 52.565433 -21.703947 0.327744 -0.106904 2.647751 7.125000 0.000000 0.000000 
25.554207 17.762892 -30.485507 -2.063598 -29.109712 12.842780 -12.116564 8.148393 -36.436079 2.947985 12.152331 35.268929 -2.355567 9.318291 -0.978596 0.065800 -1.655100 -4.553400 14.573425 5.682597 -29.091080 -3.810701 -13.160388 40.092237 1.358913 -7.890218 -12.348826 -0.023500 0.989900 -2.721100 1.415830 -3.525769 -2.857340 -7.839497 -1.284829 5.750260 9.791011 -9.219798 0.462015 5.986300 -4.057500 1.254700 -75.202876 -11.359291 57.170735 54.303339 -56.458318 -30.993261 0.363855 -0.933079 -81.452959 -7.125000 0.000000 0.000000 80.868747 -8.881361 59.893054 -46.122674 52.572855 -21.721457 0.326213 -0.103477 2.624033 7.125000 0.000000 0.000000 
25.556495 17.761540 -30.483324 -2.072984 -29.130404 12.833939 -12.119137 8.157970 -36.438535 2.955733 12.162373 35.301946 -2.352444 9.309872 -1.010759 0.065000 -1.645200 -4.526100 14.574904 5.692773 -29.083585 -3.817004 -13.165185 40.114170 1.360244 -7.895904 -12.354872 -0.024200 1.003600 -2.758600 1.424020 -3.535727 -2.862955 -7.788996 -1.296115 5.711342 9.805663 -9.190325 0.382448 6.001200 -4.042500 1.211400 -75.226229 -11.316405 57.149021 54.348734 -56.473454 -31.026765 0.361671 -0.932654 -81.464663 -7.125000 0.000000 0.000000 80.799942 -8.916634 59.944668 -46.146352 52.580125 -21.739419 0.324626 -0.100202 2.604365 7.125000 0.000000 0.000000 
25.558783 17.760189 -30.481348 -2.081402 -29.149298 12.824489 -12.122061 8.166913 -36.442594 2.963460 12.172522 35.335037 -2.349329 9.301706 -1.042339 0.064400 -1.637500 -4.505000 14.576591 5.703942 -29.076999 -3.823667 -13.170133 40.137458 1.362386 -7.904290 -12.362612 -0.024900 1.018000 -2.798300 1.434098 -3.550737 -2.870699 -7.728995 -1.310645 5.666058 9.816964 -9.155029 0.319556 6.014900 -4.024600 1.178300 -75.255573 -11.258588 57.125402 54.402461 -56.491802 -31.066248 0.359339 -0.931961 -81.477947 -7.125000 0.000000 0.000000 80.715509 -8.955048 60.017198 -46.170761 52.587005 -21.757689 0.323121 -0.096991 2.585988 7.125000 0.000000 0.000000 
25.560966 17.758629 -30.479476 -2.091175 -29.167033 12.814711 -12.122937 8.176500 -36.447584 2.971210 12.182640 35.367713 -2.346794 9.295103 -1.071806 0.064100 -1.633900 -4.494800 14.580338 5.718503 -29.069049 -3.830543 -13.174979 40.161609 1.364397 -7.913185 -12.374237 -0.025400 1.027900 -2.825500 1.447850 -3.573736 -2.882058 -7.651763 -1.330541 5.607782 9.824925 -9.108582 0.275943 6.030000 -4.001600 1.153400 -75.299838 -11.180146 57.081154 54.464695 -56.513042 -31.112809 0.356727 -0.930994 -81.479408 -7.125000 0.000000 0.000000 80.604173 -9.001686 60.120920 -46.198976 52.594194 -21.778832 0.321756 -0.093437 2.571339 7.125000 0.000000 0.000000 
25.563254 17.757069 -30.477709 -2.101984 -29.179819 12.804953 -12.121726 8.182452 -36.452428 2.978970 12.192646 35.399970 -2.344775 9.289878 -1.099268 0.064100 -1.633500 -4.493900 14.585991 5.731064 -29.062383 -3.837546 -13.179931 40.186502 1.366354 -7.922243 -12.386682 -0.025800 1.036500 -2.849300 1.462698 -3.603853 -2.894875 -7.572391 -1.353815 5.545024 9.835981 -9.054843 0.246144 6.049000 -3.975300 1.133800 -75.345962 -11.090958 57.026542 54.530965 -56.535712 -31.163513 0.354068 -0.930024 -81.474212 -7.125000 0.000000 0.000000 80.483492 -9.051346 60.243359 -46.227972 52.601610 -21.800192 0.320736 -0.090053 2.562873 7.125000 0.000000 0.000000 
